<?xml version="1.0" encoding="UTF-8"?>
<!-- Generator: Adobe Illustrator 26.0.3, SVG Export Plug-In . SVG Version: 6.00 Build 0)  -->
<svg xmlns="http://www.w3.org/2000/svg" xmlns:xlink="http://www.w3.org/1999/xlink" version="1.1" id="Layer_1" x="0px" y="0px" viewBox="0 0 2000 1375" style="enable-background:new 0 0 2000 1375;" xml:space="preserve">
<style type="text/css">
	.st0{clip-path:url(#SVGID_00000017510326245264256300000010839812007863006878_);}
	.st1{fill:#F9EAC5;}
	.st2{fill:#F4C33B;}
	.st3{fill:#F7BC39;}
	.st4{fill:#FFFFFF;}
	.st5{fill:#F4882F;}
	.st6{fill:#3A60DD;}
	.st7{fill:#101C3A;}
	.st8{fill:none;stroke:#ECEAEB;stroke-width:2;stroke-linecap:square;stroke-linejoin:round;stroke-miterlimit:10;}
	.st9{fill:#ECEAEB;}
	.st10{fill:#D36922;}
	.st11{fill:#0C2FA0;}
	.st12{fill:#5871D9;}
	.st13{fill:none;stroke:#FFFFFF;stroke-width:3;stroke-linecap:round;stroke-miterlimit:10;}
	.st14{fill:#272222;}
	.st15{fill:none;stroke:#FFFFFF;stroke-width:3;stroke-miterlimit:10;}
	.st16{fill:#FFFDFA;}
	.st17{fill:#314686;}
	.st18{fill:#223762;}
	.st19{fill:#244384;}
	.st20{fill:#7A9AEA;}
	.st21{fill:#586BA0;}
	.st22{fill:#8CACEA;}
	.st23{fill:#2C4D8F;}
	.st24{fill:#1F3262;}
	.st25{fill:#FC1381;}
	.st26{fill:#009FBF;}
	.st27{fill:#000C61;}
	.st28{fill:#FFB701;}
	.st29{fill:#FC0E01;}
	.st30{fill:#007201;}
	.st31{fill:#000900;}
	.st32{fill:#FFFFFF;stroke:#272222;stroke-width:3;stroke-linejoin:round;}
	.st33{fill:#E5C188;stroke:#272222;stroke-width:3;stroke-linejoin:round;}
	.st34{fill:#FFFFFF;stroke:#272222;stroke-width:3;stroke-miterlimit:10;}
	.st35{fill:#FFFAF5;stroke:#272222;stroke-width:3;stroke-miterlimit:10;}
	.st36{fill:#99774A;}
	.st37{fill:#F78E41;}
</style>
<g>
	<defs>
		<rect id="SVGID_1_" width="2000" height="1375"></rect>
	</defs>
	<clipPath id="SVGID_00000024703792283126771760000009085359557881211816_">
		<use xlink:href="#SVGID_1_" style="overflow:visible;"></use>
	</clipPath>
	<g style="clip-path:url(#SVGID_00000024703792283126771760000009085359557881211816_);">
		<rect class="st1" width="2000" height="1375"></rect>
		<g>
			<g>
				<path class="st2" d="M408.4,265.5c155.4,89.2,336.8-17.4,390-102.9C955.4-90.1,253,176.3,408.4,265.5z"></path>
			</g>
			<path class="st2" d="M338.7,1018.6c114.2,144.1,314,252.7,518.8,258.5c33.1,0.9,66.3-0.8,99.3-5.5c7.8-1.1,15.6-2.4,23.4-3.9     c132.2-24.6,259.7-98.3,360.4-239.3c155.5-217.9,183.1-413.2,126.6-569.8c-16.4-45.6-40-87.9-69.6-126.5     c-259.7-339.1-463.9-75-747.8,6.8c-195.8,56.4-411.2,168.2-433.9,356C205.1,784.7,238.3,891.8,338.7,1018.6z"></path>
			<circle class="st3" cx="158.1" cy="892.9" r="11.2"></circle>
			<circle class="st3" cx="1863.6" cy="259.7" r="4.1"></circle>
		</g>
		<g>
			<g>
				<path class="st4" d="M1388.1,713.1H867.7c-8.1,0-14.6-6.5-14.6-14.6V285.1c0-8.1,6.5-14.6,14.6-14.6h520.4      c8.1,0,14.6,6.5,14.6,14.6v413.4C1402.7,706.5,1396.1,713.1,1388.1,713.1z"></path>
			</g>
			<g>
				<g>
					<path class="st3" d="M1336,283.4c-1.5,0-2.7,1.2-2.7,2.7c0,1.5,1.2,2.7,2.7,2.7c1.5,0,2.7-1.2,2.7-2.7       C1338.8,284.6,1337.5,283.4,1336,283.4z"></path>
					<path class="st5" d="M1347.5,283.4c-1.5,0-2.7,1.2-2.7,2.7c0,1.5,1.2,2.7,2.7,2.7s2.7-1.2,2.7-2.7       C1350.3,284.6,1349.1,283.4,1347.5,283.4z"></path>
					<path class="st6" d="M1359.1,283.4c-1.5,0-2.7,1.2-2.7,2.7c0,1.5,1.2,2.7,2.7,2.7c1.5,0,2.7-1.2,2.7-2.7       C1361.8,284.6,1360.6,283.4,1359.1,283.4z"></path>
				</g>
			</g>
			<g>
				<path class="st5" d="M1395.7,307H883.1c-1,0-1.9-0.8-1.9-1.9l0,0c0-1,0.8-1.9,1.9-1.9h512.5c1,0,1.9,0.8,1.9,1.9l0,0      C1397.6,306.2,1396.7,307,1395.7,307z"></path>
			</g>
			<g>
				<g>
					<g>
						<path class="st6" d="M885.8,497.4h156.6c2.5,0,4.6-2,4.6-4.6V336.3c0-2.5-2-4.6-4.6-4.6H885.8c-2.5,0-4.6,2-4.6,4.6v156.6        C881.2,495.4,883.3,497.4,885.8,497.4z"></path>
					</g>
					<g>
						<g>
							<g>
								<g>
									<polygon class="st5" points="1022.9,475.8 981.4,393.4 956.7,445.4 939.3,417.9 905.4,475.4          "></polygon>
								</g>
							</g>
						</g>
					</g>
					<g>
						<g>
							<g>
								<g>
									<g>
										<g>
											<path class="st4" d="M945.7,383.8c0,5.1,4.2,9.1,9.3,9.1c5.1,0,9.1-4.2,9.1-9.3c0-5.1-4.2-9.1-9.3-9.1             C949.7,374.6,945.7,378.7,945.7,383.8z"></path>
										</g>
									</g>
								</g>
							</g>
						</g>
					</g>
					<g>
						
							<rect x="963.2" y="327.9" transform="matrix(0.7071 -0.7071 0.7071 0.7071 -10.7652 803.1285)" class="st4" width="1.8" height="173.3"></rect>
					</g>
					<g>
						
							<rect x="877.5" y="413.6" transform="matrix(0.7071 -0.7071 0.7071 0.7071 -10.7589 803.1444)" class="st4" width="173.3" height="1.8"></rect>
					</g>
					<g>
						<g>
							<g>
								<g>
									<g>
										<path class="st4" d="M905.3,477.6c3,0,3.4-0.6,3.4-1.4c0-0.7-0.4-1.4-3.4-1.4c-3,0-3.4,0.7-3.4,1.4            C901.9,477,902.3,477.6,905.3,477.6z"></path>
									</g>
								</g>
							</g>
							<g>
								<g>
									<g>
										<path class="st4" d="M915.4,477.6c3,0,3.4-0.6,3.4-1.4c0-0.7-0.4-1.4-3.4-1.4s-3.4,0.7-3.4,1.4            C911.9,477,912.4,477.6,915.4,477.6z"></path>
									</g>
								</g>
							</g>
							<g>
								<g>
									<g>
										<path class="st4" d="M925.4,477.6c3,0,3.4-0.6,3.4-1.4c0-0.7-0.4-1.4-3.4-1.4c-3,0-3.4,0.7-3.4,1.4            C922,477,922.4,477.6,925.4,477.6z"></path>
									</g>
								</g>
							</g>
							<g>
								<g>
									<g>
										<path class="st4" d="M935.4,477.6c3,0,3.4-0.6,3.4-1.4c0-0.7-0.4-1.4-3.4-1.4c-3,0-3.4,0.7-3.4,1.4            C932,477,932.4,477.6,935.4,477.6z"></path>
									</g>
								</g>
							</g>
							<g>
								<g>
									<g>
										<path class="st4" d="M945.5,477.6c3,0,3.4-0.6,3.4-1.4c0-0.7-0.4-1.4-3.4-1.4c-3,0-3.4,0.7-3.4,1.4            C942,477,942.5,477.6,945.5,477.6z"></path>
									</g>
								</g>
							</g>
							<g>
								<g>
									<g>
										<path class="st4" d="M955.5,477.6c3,0,3.4-0.6,3.4-1.4c0-0.7-0.4-1.4-3.4-1.4c-3,0-3.4,0.7-3.4,1.4            C952.1,477,952.5,477.6,955.5,477.6z"></path>
									</g>
								</g>
							</g>
							<g>
								<g>
									<g>
										<path class="st4" d="M965.5,477.6c3,0,3.4-0.6,3.4-1.4c0-0.7-0.4-1.4-3.4-1.4c-3,0-3.4,0.7-3.4,1.4            C962.1,477,962.5,477.6,965.5,477.6z"></path>
									</g>
								</g>
							</g>
							<g>
								<g>
									<g>
										<path class="st4" d="M975.6,477.6c3,0,3.4-0.6,3.4-1.4c0-0.7-0.4-1.4-3.4-1.4c-3,0-3.4,0.7-3.4,1.4            C972.1,477,972.5,477.6,975.6,477.6z"></path>
									</g>
								</g>
							</g>
							<g>
								<g>
									<g>
										<path class="st4" d="M985.6,477.6c3,0,3.4-0.6,3.4-1.4c0-0.7-0.4-1.4-3.4-1.4c-3,0-3.4,0.7-3.4,1.4            C982.2,477,982.6,477.6,985.6,477.6z"></path>
									</g>
								</g>
							</g>
							<g>
								<g>
									<g>
										<path class="st4" d="M995.6,477.6c3,0,3.4-0.6,3.4-1.4c0-0.7-0.4-1.4-3.4-1.4c-3,0-3.4,0.7-3.4,1.4            C992.2,477,992.6,477.6,995.6,477.6z"></path>
									</g>
								</g>
							</g>
							<g>
								<g>
									<g>
										<path class="st4" d="M1005.6,477.6c3,0,3.4-0.6,3.4-1.4c0-0.7-0.4-1.4-3.4-1.4c-3,0-3.4,0.7-3.4,1.4            C1002.2,477,1002.6,477.6,1005.6,477.6z"></path>
									</g>
								</g>
							</g>
							<g>
								<g>
									<g>
										<path class="st4" d="M1015.7,477.6c3,0,3.4-0.6,3.4-1.4c0-0.7-0.4-1.4-3.4-1.4c-3,0-3.4,0.7-3.4,1.4            C1012.3,477,1012.7,477.6,1015.7,477.6z"></path>
									</g>
								</g>
							</g>
							<g>
								<g>
									<g>
										<path class="st4" d="M1024,478.1l0.7-0.5c0.2,0,0.4,0,0.6,0l1.4,0l0-1.8c0,0,0-0.1,0-0.1l0.9-0.9l-1,0            c-0.1-2.1-0.7-2.4-1.3-2.4c-0.6,0-1.2,0.3-1.3,2.5c-1,0.1-1.7,0.5-1.7,1.3c0,0.8,0.7,1.1,1.7,1.2V478.1z"></path>
									</g>
								</g>
							</g>
							<g>
								<g>
									<g>
										<path class="st4" d="M1025.3,469.3c0.7,0,1.4-0.4,1.4-3.4c0-3-0.7-3.4-1.4-3.4c-0.7,0-1.4,0.4-1.4,3.4            C1024,468.9,1024.6,469.3,1025.3,469.3z"></path>
									</g>
								</g>
							</g>
							<g>
								<g>
									<g>
										<path class="st4" d="M1025.3,459.2c0.7,0,1.4-0.4,1.4-3.4c0-3-0.7-3.4-1.4-3.4c-0.7,0-1.4,0.4-1.4,3.4            C1024,458.8,1024.6,459.2,1025.3,459.2z"></path>
									</g>
								</g>
							</g>
							<g>
								<g>
									<g>
										<path class="st4" d="M1025.3,449.2c0.7,0,1.4-0.4,1.4-3.4c0-3-0.7-3.4-1.4-3.4c-0.7,0-1.4,0.4-1.4,3.4            C1024,448.8,1024.6,449.2,1025.3,449.2z"></path>
									</g>
								</g>
							</g>
							<g>
								<g>
									<g>
										<path class="st4" d="M1025.3,439.2c0.7,0,1.4-0.4,1.4-3.4c0-3-0.7-3.4-1.4-3.4c-0.7,0-1.4,0.4-1.4,3.4            C1024,438.8,1024.6,439.2,1025.3,439.2z"></path>
									</g>
								</g>
							</g>
							<g>
								<g>
									<g>
										<path class="st4" d="M1025.3,429.1c0.7,0,1.4-0.4,1.4-3.4c0-3-0.7-3.4-1.4-3.4c-0.7,0-1.4,0.4-1.4,3.4            C1024,428.7,1024.6,429.1,1025.3,429.1z"></path>
									</g>
								</g>
							</g>
							<g>
								<g>
									<g>
										<path class="st4" d="M1025.3,419.1c0.7,0,1.4-0.4,1.4-3.4s-0.7-3.4-1.4-3.4c-0.7,0-1.4,0.4-1.4,3.4            C1024,418.7,1024.6,419.1,1025.3,419.1z"></path>
									</g>
								</g>
							</g>
							<g>
								<g>
									<g>
										<path class="st4" d="M1025.3,409.1c0.7,0,1.4-0.4,1.4-3.4c0-3-0.7-3.4-1.4-3.4c-0.7,0-1.4,0.4-1.4,3.4            C1024,408.7,1024.6,409.1,1025.3,409.1z"></path>
									</g>
								</g>
							</g>
							<g>
								<g>
									<g>
										<path class="st4" d="M1025.3,399.1c0.7,0,1.4-0.4,1.4-3.4c0-3-0.7-3.4-1.4-3.4c-0.7,0-1.4,0.4-1.4,3.4            C1024,398.6,1024.6,399.1,1025.3,399.1z"></path>
									</g>
								</g>
							</g>
							<g>
								<g>
									<g>
										<path class="st4" d="M1025.3,389c0.7,0,1.4-0.4,1.4-3.4c0-3-0.7-3.4-1.4-3.4c-0.7,0-1.4,0.4-1.4,3.4            C1024,388.6,1024.6,389,1025.3,389z"></path>
									</g>
								</g>
							</g>
							<g>
								<g>
									<g>
										<path class="st4" d="M1025.3,379c0.7,0,1.4-0.4,1.4-3.4c0-3-0.7-3.4-1.4-3.4c-0.7,0-1.4,0.4-1.4,3.4            C1024,378.6,1024.6,379,1025.3,379z"></path>
									</g>
								</g>
							</g>
							<g>
								<g>
									<g>
										<path class="st4" d="M1025.3,369c0.7,0,1.4-0.4,1.4-3.4c0-3-0.7-3.4-1.4-3.4c-0.7,0-1.4,0.4-1.4,3.4            C1024,368.5,1024.6,369,1025.3,369z"></path>
									</g>
								</g>
							</g>
							<g>
								<g>
									<g>
										<path class="st4" d="M1017.1,355.1c3,0,3.4-0.7,3.4-1.4c0-0.7-0.4-1.4-3.4-1.4c-3,0-3.4,0.6-3.4,1.4            C1013.6,354.4,1014,355.1,1017.1,355.1z"></path>
									</g>
								</g>
							</g>
							<g>
								<g>
									<g>
										<path class="st4" d="M1007,355.1c3,0,3.4-0.7,3.4-1.4c0-0.7-0.4-1.4-3.4-1.4c-3,0-3.4,0.6-3.4,1.4            C1003.6,354.4,1004,355.1,1007,355.1z"></path>
									</g>
								</g>
							</g>
							<g>
								<g>
									<g>
										<path class="st4" d="M997,355.1c3,0,3.4-0.7,3.4-1.4c0-0.7-0.4-1.4-3.4-1.4c-3,0-3.4,0.6-3.4,1.4            C993.6,354.4,994,355.1,997,355.1z"></path>
									</g>
								</g>
							</g>
							<g>
								<g>
									<g>
										<path class="st4" d="M987,355.1c3,0,3.4-0.7,3.4-1.4c0-0.7-0.4-1.4-3.4-1.4c-3,0-3.4,0.6-3.4,1.4            C983.5,354.4,983.9,355.1,987,355.1z"></path>
									</g>
								</g>
							</g>
							<g>
								<g>
									<g>
										<path class="st4" d="M976.9,355.1c3,0,3.4-0.7,3.4-1.4c0-0.7-0.4-1.4-3.4-1.4c-3,0-3.4,0.6-3.4,1.4            C973.5,354.4,973.9,355.1,976.9,355.1z"></path>
									</g>
								</g>
							</g>
							<g>
								<g>
									<g>
										<path class="st4" d="M966.9,355.1c3,0,3.4-0.7,3.4-1.4c0-0.7-0.4-1.4-3.4-1.4c-3,0-3.4,0.6-3.4,1.4            C963.5,354.4,963.9,355.1,966.9,355.1z"></path>
									</g>
								</g>
							</g>
							<g>
								<g>
									<g>
										<path class="st4" d="M956.9,355.1c3,0,3.4-0.7,3.4-1.4c0-0.7-0.4-1.4-3.4-1.4c-3,0-3.4,0.6-3.4,1.4            C953.4,354.4,953.9,355.1,956.9,355.1z"></path>
									</g>
								</g>
							</g>
							<g>
								<g>
									<g>
										<path class="st4" d="M946.8,355.1c3,0,3.4-0.7,3.4-1.4c0-0.7-0.4-1.4-3.4-1.4s-3.4,0.6-3.4,1.4            C943.4,354.4,943.8,355.1,946.8,355.1z"></path>
									</g>
								</g>
							</g>
							<g>
								<g>
									<g>
										<path class="st4" d="M936.8,355.1c3,0,3.4-0.7,3.4-1.4c0-0.7-0.4-1.4-3.4-1.4s-3.4,0.6-3.4,1.4            C933.4,354.4,933.8,355.1,936.8,355.1z"></path>
									</g>
								</g>
							</g>
							<g>
								<g>
									<g>
										<path class="st4" d="M926.8,355.1c3,0,3.4-0.7,3.4-1.4c0-0.7-0.4-1.4-3.4-1.4c-3,0-3.4,0.6-3.4,1.4            C923.4,354.4,923.8,355.1,926.8,355.1z"></path>
									</g>
								</g>
							</g>
							<g>
								<g>
									<g>
										<path class="st4" d="M916.7,355.1c3,0,3.4-0.7,3.4-1.4c0-0.7-0.4-1.4-3.4-1.4c-3,0-3.4,0.6-3.4,1.4            C913.3,354.4,913.7,355.1,916.7,355.1z"></path>
									</g>
								</g>
							</g>
							<g>
								<g>
									<g>
										<path class="st4" d="M906.7,355.1c3,0,3.4-0.7,3.4-1.4c0-0.7-0.4-1.4-3.4-1.4s-3.4,0.6-3.4,1.4            C903.3,354.4,903.7,355.1,906.7,355.1z"></path>
									</g>
								</g>
							</g>
							<g>
								<g>
									<g>
										<path class="st4" d="M902.8,363.3c0.7,0,1.4-0.4,1.4-3.4c0-3-0.6-3.4-1.4-3.4c-0.7,0-1.4,0.4-1.4,3.4            C901.5,362.9,902.2,363.3,902.8,363.3z"></path>
									</g>
								</g>
							</g>
							<g>
								<g>
									<g>
										<path class="st4" d="M902.8,373.3c0.7,0,1.4-0.4,1.4-3.4c0-3-0.6-3.4-1.4-3.4c-0.7,0-1.4,0.4-1.4,3.4            C901.5,372.9,902.2,373.3,902.8,373.3z"></path>
									</g>
								</g>
							</g>
							<g>
								<g>
									<g>
										<path class="st4" d="M902.8,383.4c0.7,0,1.4-0.4,1.4-3.4c0-3-0.6-3.4-1.4-3.4c-0.7,0-1.4,0.4-1.4,3.4            C901.5,383,902.2,383.4,902.8,383.4z"></path>
									</g>
								</g>
							</g>
							<g>
								<g>
									<g>
										<path class="st4" d="M902.8,393.4c0.7,0,1.4-0.4,1.4-3.4c0-3-0.6-3.4-1.4-3.4c-0.7,0-1.4,0.4-1.4,3.4            C901.5,393,902.2,393.4,902.8,393.4z"></path>
									</g>
								</g>
							</g>
							<g>
								<g>
									<g>
										<path class="st4" d="M902.8,403.4c0.7,0,1.4-0.4,1.4-3.4c0-3-0.6-3.4-1.4-3.4c-0.7,0-1.4,0.4-1.4,3.4            C901.5,403,902.2,403.4,902.8,403.4z"></path>
									</g>
								</g>
							</g>
							<g>
								<g>
									<g>
										<path class="st4" d="M902.8,413.5c0.7,0,1.4-0.4,1.4-3.4s-0.6-3.4-1.4-3.4c-0.7,0-1.4,0.4-1.4,3.4            C901.5,413.1,902.2,413.5,902.8,413.5z"></path>
									</g>
								</g>
							</g>
							<g>
								<g>
									<g>
										<path class="st4" d="M902.8,423.5c0.7,0,1.4-0.4,1.4-3.4c0-3-0.6-3.4-1.4-3.4c-0.7,0-1.4,0.4-1.4,3.4            C901.5,423.1,902.2,423.5,902.8,423.5z"></path>
									</g>
								</g>
							</g>
							<g>
								<g>
									<g>
										<path class="st4" d="M902.8,433.5c0.7,0,1.4-0.4,1.4-3.4c0-3-0.6-3.4-1.4-3.4c-0.7,0-1.4,0.4-1.4,3.4            C901.5,433.1,902.2,433.5,902.8,433.5z"></path>
									</g>
								</g>
							</g>
							<g>
								<g>
									<g>
										<path class="st4" d="M902.8,443.6c0.7,0,1.4-0.4,1.4-3.4c0-3-0.6-3.4-1.4-3.4c-0.7,0-1.4,0.4-1.4,3.4            C901.5,443.2,902.2,443.6,902.8,443.6z"></path>
									</g>
								</g>
							</g>
							<g>
								<g>
									<g>
										<path class="st4" d="M902.8,453.6c0.7,0,1.4-0.4,1.4-3.4c0-3-0.6-3.4-1.4-3.4c-0.7,0-1.4,0.4-1.4,3.4            C901.5,453.2,902.2,453.6,902.8,453.6z"></path>
									</g>
								</g>
							</g>
							<g>
								<g>
									<g>
										<path class="st4" d="M902.8,463.6c0.7,0,1.4-0.4,1.4-3.4c0-3-0.6-3.4-1.4-3.4c-0.7,0-1.4,0.4-1.4,3.4            C901.5,463.2,902.2,463.6,902.8,463.6z"></path>
									</g>
								</g>
							</g>
							<g>
								<g>
									<g>
										<path class="st4" d="M902.8,473.7c0.7,0,1.4-0.4,1.4-3.4c0-3-0.6-3.4-1.4-3.4c-0.7,0-1.4,0.4-1.4,3.4            C901.5,473.3,902.2,473.7,902.8,473.7z"></path>
									</g>
								</g>
							</g>
						</g>
						<g>
							<g>
								<rect x="898.3" y="470.5" class="st4" width="9.1" height="9.1"></rect>
								<path class="st4" d="M897.4,469.6v10.9h10.9v-10.9H897.4z M906.4,478.6h-7.2v-7.3h7.2V478.6z"></path>
							</g>
						</g>
						<g>
							<g>
								<rect x="1020.8" y="471.7" class="st4" width="9.1" height="9.1"></rect>
								<path class="st4" d="M1019.9,470.8v10.9h10.9v-10.9H1019.9z M1029,479.9h-7.3v-7.2h7.3V479.9z"></path>
							</g>
						</g>
						<g>
							<g>
								<rect x="898.3" y="348.3" class="st4" width="9.1" height="9.1"></rect>
								<path class="st4" d="M897.4,347.4v10.9h10.9v-10.9H897.4z M906.4,356.5h-7.2v-7.2h7.2V356.5z"></path>
							</g>
						</g>
						<g>
							<g>
								<rect x="1020.8" y="349.2" class="st4" width="9.1" height="9.1"></rect>
								<path class="st4" d="M1019.9,348.3v10.9h10.9v-10.9H1019.9z M1029,357.4h-7.3v-7.2h7.3V357.4z"></path>
							</g>
						</g>
					</g>
				</g>
				<g>
					<g>
						<path class="st6" d="M1230.5,683.8h141c2.5,0,4.6-2,4.6-4.6v-141c0-2.5-2-4.6-4.6-4.6h-141c-2.5,0-4.6,2-4.6,4.6v141        C1226,681.8,1228,683.8,1230.5,683.8z"></path>
					</g>
					<g>
						<g>
							<g>
								<g>
									<polygon class="st5" points="1355.5,665.4 1317.1,589.2 1294.2,637.3 1278.1,611.8 1246.7,665.1          "></polygon>
								</g>
							</g>
						</g>
					</g>
					<g>
						<g>
							<g>
								<g>
									<g>
										<g>
											<path class="st4" d="M1284,580.3c0,4.7,3.9,8.5,8.6,8.4c4.7,0,8.5-3.9,8.4-8.6c0-4.7-3.9-8.5-8.6-8.4             C1287.8,571.8,1284,575.6,1284,580.3z"></path>
										</g>
									</g>
								</g>
							</g>
						</g>
					</g>
					<g>
						
							<rect x="1300.2" y="528.6" transform="matrix(0.7075 -0.7067 0.7067 0.7075 -49.6497 1097.5441)" class="st4" width="1.7" height="160.4"></rect>
					</g>
					<g>
						
							<rect x="1220.9" y="607.9" transform="matrix(0.7071 -0.7071 0.7071 0.7071 -49.3744 1098.3042)" class="st4" width="160.4" height="1.7"></rect>
					</g>
					<g>
						<g>
							<g>
								<g>
									<g>
										<path class="st4" d="M1246.7,667.1c2.8,0,3.2-0.6,3.2-1.2c0-0.6-0.4-1.3-3.2-1.3c-2.8,0-3.2,0.6-3.2,1.3            C1243.5,666.5,1243.9,667.1,1246.7,667.1z"></path>
									</g>
								</g>
							</g>
							<g>
								<g>
									<g>
										<path class="st4" d="M1256,667.1c2.8,0,3.2-0.6,3.2-1.2c0-0.6-0.4-1.3-3.2-1.3s-3.2,0.6-3.2,1.3            C1252.8,666.5,1253.2,667.1,1256,667.1z"></path>
									</g>
								</g>
							</g>
							<g>
								<g>
									<g>
										<path class="st4" d="M1265.3,667.1c2.8,0,3.2-0.6,3.2-1.2c0-0.6-0.4-1.3-3.2-1.3c-2.8,0-3.2,0.6-3.2,1.3            C1262.1,666.5,1262.5,667.1,1265.3,667.1z"></path>
									</g>
								</g>
							</g>
							<g>
								<g>
									<g>
										<path class="st4" d="M1274.5,667.1c2.8,0,3.2-0.6,3.2-1.2c0-0.6-0.4-1.3-3.2-1.3c-2.8,0-3.2,0.6-3.2,1.3            C1271.4,666.5,1271.8,667.1,1274.5,667.1z"></path>
									</g>
								</g>
							</g>
							<g>
								<g>
									<g>
										<path class="st4" d="M1283.8,667.1c2.8,0,3.2-0.6,3.2-1.2c0-0.6-0.4-1.3-3.2-1.3c-2.8,0-3.2,0.6-3.2,1.3            C1280.7,666.5,1281,667.1,1283.8,667.1z"></path>
									</g>
								</g>
							</g>
							<g>
								<g>
									<g>
										<path class="st4" d="M1293.1,667.1c2.8,0,3.2-0.6,3.2-1.2c0-0.6-0.4-1.3-3.2-1.3c-2.8,0-3.2,0.6-3.2,1.3            C1289.9,666.5,1290.3,667.1,1293.1,667.1z"></path>
									</g>
								</g>
							</g>
							<g>
								<g>
									<g>
										<path class="st4" d="M1302.4,667.1c2.8,0,3.2-0.6,3.2-1.2c0-0.6-0.4-1.3-3.2-1.3c-2.8,0-3.2,0.6-3.2,1.3            C1299.2,666.5,1299.6,667.1,1302.4,667.1z"></path>
									</g>
								</g>
							</g>
							<g>
								<g>
									<g>
										<path class="st4" d="M1311.7,667.1c2.8,0,3.2-0.6,3.2-1.2c0-0.6-0.4-1.3-3.2-1.3c-2.8,0-3.2,0.6-3.2,1.3            C1308.5,666.5,1308.9,667.1,1311.7,667.1z"></path>
									</g>
								</g>
							</g>
							<g>
								<g>
									<g>
										<path class="st4" d="M1321,667.1c2.8,0,3.2-0.6,3.2-1.2c0-0.6-0.4-1.3-3.2-1.3c-2.8,0-3.2,0.6-3.2,1.3            C1317.8,666.5,1318.2,667.1,1321,667.1z"></path>
									</g>
								</g>
							</g>
							<g>
								<g>
									<g>
										<path class="st4" d="M1330.2,667.1c2.8,0,3.2-0.6,3.2-1.2c0-0.6-0.4-1.3-3.2-1.3c-2.8,0-3.2,0.6-3.2,1.3            C1327.1,666.5,1327.5,667.1,1330.2,667.1z"></path>
									</g>
								</g>
							</g>
							<g>
								<g>
									<g>
										<path class="st4" d="M1339.5,667.1c2.8,0,3.2-0.6,3.2-1.2c0-0.6-0.4-1.3-3.2-1.3c-2.8,0-3.2,0.6-3.2,1.3            C1336.4,666.5,1336.7,667.1,1339.5,667.1z"></path>
									</g>
								</g>
							</g>
							<g>
								<g>
									<g>
										<path class="st4" d="M1348.8,667.1c2.8,0,3.2-0.6,3.2-1.2c0-0.6-0.4-1.3-3.2-1.3c-2.8,0-3.2,0.6-3.2,1.3            C1345.6,666.5,1346,667.1,1348.8,667.1z"></path>
									</g>
								</g>
							</g>
							<g>
								<g>
									<g>
										<path class="st4" d="M1356.5,667.6l0.6-0.5c0.2,0,0.4,0,0.6,0l1.3,0l0-1.6c0,0,0-0.1,0-0.1l0.9-0.9l-0.9,0            c-0.1-1.9-0.7-2.2-1.2-2.2c-0.6,0-1.1,0.3-1.2,2.4c-0.9,0.1-1.6,0.4-1.6,1.2c0,0.7,0.7,1,1.6,1.2V667.6z"></path>
									</g>
								</g>
							</g>
							<g>
								<g>
									<g>
										<path class="st4" d="M1357.8,659.4c0.6,0,1.3-0.4,1.3-3.2c0-2.8-0.6-3.2-1.3-3.2c-0.6,0-1.2,0.4-1.2,3.2            C1356.5,659,1357.1,659.4,1357.8,659.4z"></path>
									</g>
								</g>
							</g>
							<g>
								<g>
									<g>
										<path class="st4" d="M1357.8,650.1c0.6,0,1.3-0.4,1.3-3.2c0-2.8-0.6-3.2-1.3-3.2c-0.6,0-1.2,0.4-1.2,3.2            C1356.5,649.7,1357.1,650.1,1357.8,650.1z"></path>
									</g>
								</g>
							</g>
							<g>
								<g>
									<g>
										<path class="st4" d="M1357.8,640.8c0.6,0,1.3-0.4,1.3-3.2c0-2.8-0.6-3.2-1.3-3.2c-0.6,0-1.2,0.4-1.2,3.2            C1356.5,640.4,1357.1,640.8,1357.8,640.8z"></path>
									</g>
								</g>
							</g>
							<g>
								<g>
									<g>
										<path class="st4" d="M1357.8,631.5c0.6,0,1.3-0.4,1.3-3.2c0-2.8-0.6-3.2-1.3-3.2c-0.6,0-1.2,0.4-1.2,3.2            C1356.5,631.2,1357.1,631.5,1357.8,631.5z"></path>
									</g>
								</g>
							</g>
							<g>
								<g>
									<g>
										<path class="st4" d="M1357.8,622.3c0.6,0,1.3-0.4,1.3-3.2c0-2.8-0.6-3.2-1.3-3.2c-0.6,0-1.2,0.4-1.2,3.2            C1356.5,621.9,1357.1,622.3,1357.8,622.3z"></path>
									</g>
								</g>
							</g>
							<g>
								<g>
									<g>
										<path class="st4" d="M1357.8,613c0.6,0,1.3-0.4,1.3-3.2c0-2.8-0.6-3.2-1.3-3.2c-0.6,0-1.2,0.4-1.2,3.2            C1356.5,612.6,1357.1,613,1357.8,613z"></path>
									</g>
								</g>
							</g>
							<g>
								<g>
									<g>
										<path class="st4" d="M1357.8,603.7c0.6,0,1.3-0.4,1.3-3.2c0-2.8-0.6-3.2-1.3-3.2c-0.6,0-1.2,0.4-1.2,3.2            C1356.5,603.3,1357.1,603.7,1357.8,603.7z"></path>
									</g>
								</g>
							</g>
							<g>
								<g>
									<g>
										<path class="st4" d="M1357.8,594.4c0.6,0,1.3-0.4,1.3-3.2c0-2.8-0.6-3.2-1.3-3.2c-0.6,0-1.2,0.4-1.2,3.2            C1356.5,594,1357.1,594.4,1357.8,594.4z"></path>
									</g>
								</g>
							</g>
							<g>
								<g>
									<g>
										<path class="st4" d="M1357.8,585.1c0.6,0,1.3-0.4,1.3-3.2c0-2.8-0.6-3.2-1.3-3.2c-0.6,0-1.2,0.4-1.2,3.2            C1356.5,584.7,1357.1,585.1,1357.8,585.1z"></path>
									</g>
								</g>
							</g>
							<g>
								<g>
									<g>
										<path class="st4" d="M1357.8,575.8c0.6,0,1.3-0.4,1.3-3.2c0-2.8-0.6-3.2-1.3-3.2c-0.6,0-1.2,0.4-1.2,3.2            C1356.5,575.4,1357.1,575.8,1357.8,575.8z"></path>
									</g>
								</g>
							</g>
							<g>
								<g>
									<g>
										<path class="st4" d="M1357.8,566.5c0.6,0,1.3-0.4,1.3-3.2c0-2.8-0.6-3.2-1.3-3.2c-0.6,0-1.2,0.4-1.2,3.2            C1356.5,566.2,1357.1,566.5,1357.8,566.5z"></path>
									</g>
								</g>
							</g>
							<g>
								<g>
									<g>
										<path class="st4" d="M1350.1,553.7c2.8,0,3.2-0.6,3.2-1.3c0-0.7-0.4-1.2-3.2-1.2c-2.8,0-3.2,0.6-3.2,1.2            C1346.9,553.1,1347.3,553.7,1350.1,553.7z"></path>
									</g>
								</g>
							</g>
							<g>
								<g>
									<g>
										<path class="st4" d="M1340.8,553.7c2.8,0,3.2-0.6,3.2-1.3c0-0.7-0.4-1.2-3.2-1.2c-2.8,0-3.2,0.6-3.2,1.2            C1337.6,553.1,1338,553.7,1340.8,553.7z"></path>
									</g>
								</g>
							</g>
							<g>
								<g>
									<g>
										<path class="st4" d="M1331.5,553.7c2.8,0,3.2-0.6,3.2-1.3c0-0.7-0.4-1.2-3.2-1.2c-2.8,0-3.2,0.6-3.2,1.2            C1328.4,553.1,1328.7,553.7,1331.5,553.7z"></path>
									</g>
								</g>
							</g>
							<g>
								<g>
									<g>
										<path class="st4" d="M1322.2,553.7c2.8,0,3.2-0.6,3.2-1.3c0-0.7-0.4-1.2-3.2-1.2c-2.8,0-3.2,0.6-3.2,1.2            C1319.1,553.1,1319.4,553.7,1322.2,553.7z"></path>
									</g>
								</g>
							</g>
							<g>
								<g>
									<g>
										<path class="st4" d="M1313,553.7c2.8,0,3.2-0.6,3.2-1.3c0-0.7-0.4-1.2-3.2-1.2c-2.8,0-3.2,0.6-3.2,1.2            C1309.8,553.1,1310.2,553.7,1313,553.7z"></path>
									</g>
								</g>
							</g>
							<g>
								<g>
									<g>
										<path class="st4" d="M1303.7,553.7c2.8,0,3.2-0.6,3.2-1.3c0-0.7-0.4-1.2-3.2-1.2c-2.8,0-3.2,0.6-3.2,1.2            C1300.5,553.1,1300.9,553.7,1303.7,553.7z"></path>
									</g>
								</g>
							</g>
							<g>
								<g>
									<g>
										<path class="st4" d="M1294.4,553.7c2.8,0,3.2-0.6,3.2-1.3c0-0.7-0.4-1.2-3.2-1.2c-2.8,0-3.2,0.6-3.2,1.2            C1291.2,553.1,1291.6,553.7,1294.4,553.7z"></path>
									</g>
								</g>
							</g>
							<g>
								<g>
									<g>
										<path class="st4" d="M1285.1,553.7c2.8,0,3.2-0.6,3.2-1.3c0-0.7-0.4-1.2-3.2-1.2c-2.8,0-3.2,0.6-3.2,1.2            C1281.9,553.1,1282.3,553.7,1285.1,553.7z"></path>
									</g>
								</g>
							</g>
							<g>
								<g>
									<g>
										<path class="st4" d="M1275.8,553.7c2.8,0,3.2-0.6,3.2-1.3c0-0.7-0.4-1.2-3.2-1.2c-2.8,0-3.2,0.6-3.2,1.2            C1272.6,553.1,1273,553.7,1275.8,553.7z"></path>
									</g>
								</g>
							</g>
							<g>
								<g>
									<g>
										<path class="st4" d="M1266.5,553.7c2.8,0,3.2-0.6,3.2-1.3c0-0.7-0.4-1.2-3.2-1.2c-2.8,0-3.2,0.6-3.2,1.2            C1263.4,553.1,1263.7,553.7,1266.5,553.7z"></path>
									</g>
								</g>
							</g>
							<g>
								<g>
									<g>
										<path class="st4" d="M1257.3,553.7c2.8,0,3.2-0.6,3.2-1.3c0-0.7-0.4-1.2-3.2-1.2c-2.8,0-3.2,0.6-3.2,1.2            C1254.1,553.1,1254.5,553.7,1257.3,553.7z"></path>
									</g>
								</g>
							</g>
							<g>
								<g>
									<g>
										<path class="st4" d="M1248,553.7c2.8,0,3.2-0.6,3.2-1.3c0-0.7-0.4-1.2-3.2-1.2c-2.8,0-3.2,0.6-3.2,1.2            C1244.8,553.1,1245.2,553.7,1248,553.7z"></path>
									</g>
								</g>
							</g>
							<g>
								<g>
									<g>
										<path class="st4" d="M1244.4,561.3c0.7,0,1.3-0.4,1.3-3.2c0-2.8-0.6-3.2-1.3-3.2c-0.6,0-1.3,0.4-1.3,3.2            C1243.1,560.9,1243.7,561.3,1244.4,561.3z"></path>
									</g>
								</g>
							</g>
							<g>
								<g>
									<g>
										<path class="st4" d="M1244.4,570.6c0.7,0,1.3-0.4,1.3-3.2c0-2.8-0.6-3.2-1.3-3.2c-0.6,0-1.3,0.4-1.3,3.2            C1243.1,570.2,1243.7,570.6,1244.4,570.6z"></path>
									</g>
								</g>
							</g>
							<g>
								<g>
									<g>
										<path class="st4" d="M1244.4,579.9c0.7,0,1.3-0.4,1.3-3.2c0-2.8-0.6-3.2-1.3-3.2c-0.6,0-1.3,0.4-1.3,3.2            C1243.1,579.5,1243.7,579.9,1244.4,579.9z"></path>
									</g>
								</g>
							</g>
							<g>
								<g>
									<g>
										<path class="st4" d="M1244.4,589.2c0.7,0,1.3-0.4,1.3-3.2c0-2.8-0.6-3.2-1.3-3.2c-0.6,0-1.3,0.4-1.3,3.2            C1243.1,588.8,1243.7,589.2,1244.4,589.2z"></path>
									</g>
								</g>
							</g>
							<g>
								<g>
									<g>
										<path class="st4" d="M1244.4,598.5c0.7,0,1.3-0.4,1.3-3.2c0-2.8-0.6-3.2-1.3-3.2c-0.6,0-1.3,0.4-1.3,3.2            C1243.1,598.1,1243.7,598.5,1244.4,598.5z"></path>
									</g>
								</g>
							</g>
							<g>
								<g>
									<g>
										<path class="st4" d="M1244.4,607.7c0.7,0,1.3-0.4,1.3-3.2c0-2.8-0.6-3.2-1.3-3.2c-0.6,0-1.3,0.4-1.3,3.2            C1243.1,607.4,1243.7,607.7,1244.4,607.7z"></path>
									</g>
								</g>
							</g>
							<g>
								<g>
									<g>
										<path class="st4" d="M1244.4,617c0.7,0,1.3-0.4,1.3-3.2c0-2.8-0.6-3.2-1.3-3.2c-0.6,0-1.3,0.4-1.3,3.2            C1243.1,616.6,1243.7,617,1244.4,617z"></path>
									</g>
								</g>
							</g>
							<g>
								<g>
									<g>
										<path class="st4" d="M1244.4,626.3c0.7,0,1.3-0.4,1.3-3.2c0-2.8-0.6-3.2-1.3-3.2c-0.6,0-1.3,0.4-1.3,3.2            C1243.1,625.9,1243.7,626.3,1244.4,626.3z"></path>
									</g>
								</g>
							</g>
							<g>
								<g>
									<g>
										<path class="st4" d="M1244.4,635.6c0.7,0,1.3-0.4,1.3-3.2c0-2.8-0.6-3.2-1.3-3.2c-0.6,0-1.3,0.4-1.3,3.2            C1243.1,635.2,1243.7,635.6,1244.4,635.6z"></path>
									</g>
								</g>
							</g>
							<g>
								<g>
									<g>
										<path class="st4" d="M1244.4,644.9c0.7,0,1.3-0.4,1.3-3.2c0-2.8-0.6-3.2-1.3-3.2c-0.6,0-1.3,0.4-1.3,3.2            C1243.1,644.5,1243.7,644.9,1244.4,644.9z"></path>
									</g>
								</g>
							</g>
							<g>
								<g>
									<g>
										<path class="st4" d="M1244.4,654.2c0.7,0,1.3-0.4,1.3-3.2c0-2.8-0.6-3.2-1.3-3.2c-0.6,0-1.3,0.4-1.3,3.2            C1243.1,653.8,1243.7,654.2,1244.4,654.2z"></path>
									</g>
								</g>
							</g>
							<g>
								<g>
									<g>
										<path class="st4" d="M1244.4,663.4c0.7,0,1.3-0.4,1.3-3.2c0-2.8-0.6-3.2-1.3-3.2c-0.6,0-1.3,0.4-1.3,3.2            C1243.1,663.1,1243.7,663.4,1244.4,663.4z"></path>
									</g>
								</g>
							</g>
						</g>
						<g>
							<g>
								<rect x="1240.2" y="660.5" class="st4" width="8.4" height="8.4"></rect>
								<path class="st4" d="M1239.3,659.7v10.1h10.1v-10.1H1239.3z M1247.7,668.1h-6.7v-6.7h6.7V668.1z"></path>
							</g>
						</g>
						<g>
							<g>
								<rect x="1353.6" y="661.7" class="st4" width="8.4" height="8.4"></rect>
								<path class="st4" d="M1352.7,660.8v10.1h10.1v-10.1H1352.7z M1361.1,669.2h-6.7v-6.7h6.7V669.2z"></path>
							</g>
						</g>
						<g>
							<g>
								<rect x="1240.2" y="547.4" class="st4" width="8.4" height="8.4"></rect>
								<path class="st4" d="M1239.3,546.6v10.1h10.1v-10.1H1239.3z M1247.7,555h-6.7v-6.7h6.7V555z"></path>
							</g>
						</g>
						<g>
							<g>
								<rect x="1353.6" y="548.3" class="st4" width="8.4" height="8.4"></rect>
								<path class="st4" d="M1352.7,547.4v10.1h10.1v-10.1H1352.7z M1361.1,555.8h-6.7v-6.7h6.7V555.8z"></path>
							</g>
						</g>
					</g>
				</g>
				<g>
					<g>
						<rect x="877.7" y="513.4" class="st7" width="171.3" height="1.9"></rect>
					</g>
				</g>
				<g>
					<g>
						<rect x="1210.6" y="514.3" class="st7" width="171.3" height="1.9"></rect>
					</g>
				</g>
				<g>
					<polygon class="st6" points="1143.3,681.5 1143.1,675.4 1065.6,675.4 1065.8,681.5      "></polygon>
					<polygon class="st6" points="1199.2,663.1 1199,656.9 1065.6,656.9 1065.8,663.1      "></polygon>
					<path class="st6" d="M1178.1,641.4L1178.1,641.4c-0.1-1.7-1.4-3-3.1-3h-106.2c-1.7,0-3.1,1.4-3.1,3.2v0c0.1,1.7,1.4,3,3.1,3       h106.2C1176.8,644.6,1178.2,643.1,1178.1,641.4z"></path>
					<polygon class="st6" points="1178.8,681.5 1178.6,675.4 1163.4,675.4 1163.6,681.5      "></polygon>
					<path class="st5" d="M976.5,683L976.5,683c-0.1-1.7-1.4-3-3.1-3h-71.3c-1.7,0-3.1,1.4-3.1,3.2l0,0c0.1,1.7,1.4,3,3.1,3h71.3       C975.2,686.2,976.6,684.7,976.5,683z"></path>
					<path class="st6" d="M1032.4,664.5L1032.4,664.5c-0.1-1.7-1.4-3-3.1-3H902.2c-1.7,0-3.1,1.4-3.1,3.2l0,0c0.1,1.7,1.4,3,3.1,3       h127.2C1031.1,667.7,1032.5,666.3,1032.4,664.5z"></path>
					<path class="st6" d="M1011.5,646.1L1011.5,646.1c-0.1-1.7-1.4-3-3.1-3H902.1c-1.7,0-3.1,1.4-3.1,3.2l0,0c0.1,1.7,1.4,3,3.1,3       h106.2C1010.1,649.2,1011.5,647.8,1011.5,646.1z"></path>
					<path class="st5" d="M999.4,683L999.4,683c-0.1-1.7-1.4-3-3.1-3h-9.1c-1.7,0-3.1,1.4-3.1,3.2l0,0c0.1,1.7,1.4,3,3.1,3h9.1       C998,686.2,999.4,684.7,999.4,683z"></path>
					<path class="st6" d="M1143.2,623.6L1143.2,623.6c-0.1-1.7-1.4-3-3.1-3h-71.3c-1.7,0-3.1,1.4-3.1,3.2l0,0c0.1,1.7,1.4,3,3.1,3       h71.3C1141.8,626.8,1143.2,625.3,1143.2,623.6z"></path>
					<path class="st6" d="M1178,623.6L1178,623.6c-0.1-1.7-1.4-3-3.1-3h-9.1c-1.7,0-3.1,1.4-3.1,3.2l0,0c0.1,1.7,1.4,3,3.1,3h9.1       C1176.6,626.8,1178,625.3,1178,623.6z"></path>
					<path class="st6" d="M976.5,628.3L976.5,628.3c-0.1-1.7-1.4-3-3.1-3h-71.3c-1.7,0-3.1,1.4-3.1,3.2l0,0c0.1,1.7,1.4,3,3.1,3       h71.3C975.2,631.4,976.6,630,976.5,628.3z"></path>
					<path class="st6" d="M998.6,628.3L998.6,628.3c-0.1-1.7-1.4-3-3.1-3h-9.1c-1.7,0-3.1,1.4-3.1,3.2l0,0c0.1,1.7,1.4,3,3.1,3h9.1       C997.3,631.4,998.7,630,998.6,628.3z"></path>
					<path class="st6" d="M1143.2,602.9L1143.2,602.9c-0.1-1.7-1.4-3-3.1-3h-71.3c-1.7,0-3.1,1.4-3.1,3.2v0c0.1,1.7,1.4,3,3.1,3       h71.3C1141.8,606,1143.2,604.6,1143.2,602.9z"></path>
					<path class="st6" d="M1199.1,584.4L1199.1,584.4c-0.1-1.7-1.4-3-3.1-3h-127.2c-1.7,0-3.1,1.4-3.1,3.2l0,0c0.1,1.7,1.4,3,3.1,3       H1196C1197.8,587.6,1199.2,586.1,1199.1,584.4z"></path>
					<path class="st5" d="M1178.1,565.9L1178.1,565.9c-0.1-1.7-1.4-3-3.1-3h-106.2c-1.7,0-3.1,1.4-3.1,3.2v0c0.1,1.7,1.4,3,3.1,3       h106.2C1176.8,569.1,1178.2,567.7,1178.1,565.9z"></path>
					<path class="st6" d="M1180.1,602.9L1180.1,602.9c-0.1-1.7-1.4-3-3.1-3h-9.1c-1.7,0-3.1,1.4-3.1,3.2l0,0c0.1,1.7,1.4,3,3.1,3       h9.1C1178.8,606,1180.2,604.6,1180.1,602.9z"></path>
					<path class="st6" d="M976.5,607.5L976.5,607.5c-0.1-1.7-1.4-3-3.1-3h-71.3c-1.7,0-3.1,1.4-3.1,3.2l0,0c0.1,1.7,1.4,3,3.1,3       h71.3C975.2,610.7,976.6,609.3,976.5,607.5z"></path>
					<path class="st6" d="M1032.4,589L1032.4,589c-0.1-1.7-1.4-3-3.1-3H902.2c-1.7,0-3.1,1.4-3.1,3.2l0,0c0.1,1.7,1.4,3,3.1,3h127.2       C1031.1,592.2,1032.5,590.8,1032.4,589z"></path>
					<path class="st6" d="M1011.5,570.6L1011.5,570.6c-0.1-1.7-1.4-3-3.1-3H902.2c-1.7,0-3.1,1.4-3.1,3.2l0,0c0.1,1.7,1.4,3,3.1,3       h106.2C1010.1,573.7,1011.5,572.3,1011.5,570.6z"></path>
					<path class="st6" d="M1000.8,607.5L1000.8,607.5c-0.1-1.7-1.4-3-3.1-3h-9.1c-1.7,0-3.1,1.4-3.1,3.2l0,0c0.1,1.7,1.4,3,3.1,3       h9.1C999.4,610.7,1000.8,609.3,1000.8,607.5z"></path>
					<path class="st6" d="M1143.2,548.1L1143.2,548.1c-0.1-1.7-1.4-3-3.1-3h-71.3c-1.7,0-3.1,1.4-3.1,3.2v0c0.1,1.7,1.4,3,3.1,3       h71.3C1141.8,551.3,1143.2,549.9,1143.2,548.1z"></path>
					<path class="st6" d="M1199.1,529.6L1199.1,529.6c-0.1-1.7-1.4-3-3.1-3h-127.2c-1.7,0-3.1,1.4-3.1,3.2v0c0.1,1.7,1.4,3,3.1,3       H1196C1197.8,532.8,1199.2,531.4,1199.1,529.6z"></path>
					<path class="st6" d="M1178.1,511.2L1178.1,511.2c-0.1-1.7-1.4-3-3.1-3h-106.2c-1.7,0-3.1,1.4-3.1,3.2v0c0.1,1.7,1.4,3,3.1,3       h106.2C1176.8,514.3,1178.2,512.9,1178.1,511.2z"></path>
					<path class="st6" d="M1179.4,548.1L1179.4,548.1c-0.1-1.7-1.4-3-3.1-3h-9.1c-1.7,0-3.1,1.4-3.1,3.2v0c0.1,1.7,1.4,3,3.1,3h9.1       C1178.1,551.3,1179.5,549.9,1179.4,548.1z"></path>
					<path class="st5" d="M976.5,552.8L976.5,552.8c-0.1-1.7-1.4-3-3.1-3h-71.3c-1.7,0-3.1,1.4-3.1,3.2l0,0c0.1,1.7,1.4,3,3.1,3       h71.3C975.2,555.9,976.6,554.5,976.5,552.8z"></path>
					<path class="st6" d="M1032.4,534.3L1032.4,534.3c-0.1-1.7-1.4-3-3.1-3H902.2c-1.7,0-3.1,1.4-3.1,3.2l0,0c0.1,1.7,1.4,3,3.1,3       h127.2C1031.1,537.5,1032.5,536,1032.4,534.3z"></path>
					<path class="st6" d="M1000.1,552.8L1000.1,552.8c-0.1-1.7-1.4-3-3.1-3h-9.1c-1.7,0-3.1,1.4-3.1,3.2l0,0c0.1,1.7,1.4,3,3.1,3       h9.1C998.7,555.9,1000.1,554.5,1000.1,552.8z"></path>
					<path class="st6" d="M1143.2,493.4L1143.2,493.4c-0.1-1.7-1.4-3-3.1-3h-71.3c-1.7,0-3.1,1.4-3.1,3.2v0c0.1,1.7,1.4,3,3.1,3       h71.3C1141.8,496.5,1143.2,495.1,1143.2,493.4z"></path>
					<path class="st6" d="M1199.1,474.9L1199.1,474.9c-0.1-1.7-1.4-3-3.1-3h-127.2c-1.7,0-3.1,1.4-3.1,3.2v0c0.1,1.7,1.4,3,3.1,3       H1196C1197.8,478.1,1199.2,476.6,1199.1,474.9z"></path>
					<path class="st6" d="M1178.1,456.4L1178.1,456.4c-0.1-1.7-1.4-3-3.1-3h-106.2c-1.7,0-3.1,1.4-3.1,3.2v0c0.1,1.7,1.4,3,3.1,3       h106.2C1176.8,459.6,1178.2,458.2,1178.1,456.4z"></path>
					<path class="st6" d="M1178.7,493.4L1178.7,493.4c-0.1-1.7-1.4-3-3.1-3h-9.1c-1.7,0-3.1,1.4-3.1,3.2v0c0.1,1.7,1.4,3,3.1,3h9.1       C1177.4,496.5,1178.7,495.1,1178.7,493.4z"></path>
					<path class="st5" d="M1301,493.4L1301,493.4c-0.1-1.7-1.4-3-3.1-3h-71.3c-1.7,0-3.1,1.4-3.1,3.2l0,0c0.1,1.7,1.4,3,3.1,3h71.3       C1299.6,496.5,1301,495.1,1301,493.4z"></path>
					<path class="st6" d="M1356.9,474.9L1356.9,474.9c-0.1-1.7-1.4-3-3.1-3h-127.2c-1.7,0-3.1,1.4-3.1,3.2l0,0c0.1,1.7,1.4,3,3.1,3       h127.2C1355.6,478.1,1356.9,476.6,1356.9,474.9z"></path>
					<path class="st6" d="M1335.9,456.4L1335.9,456.4c-0.1-1.7-1.4-3-3.1-3h-106.2c-1.7,0-3.1,1.4-3.1,3.2l0,0c0.1,1.7,1.4,3,3.1,3       h106.2C1334.6,459.6,1336,458.2,1335.9,456.4z"></path>
					<path class="st5" d="M1323.8,493.4L1323.8,493.4c-0.1-1.7-1.4-3-3.1-3h-9.1c-1.7,0-3.1,1.4-3.1,3.2l0,0c0.1,1.7,1.4,3,3.1,3       h9.1C1322.5,496.5,1323.9,495.1,1323.8,493.4z"></path>
					<path class="st6" d="M1143.2,438.6L1143.2,438.6c-0.1-1.7-1.4-3-3.1-3h-71.3c-1.7,0-3.1,1.4-3.1,3.2l0,0c0.1,1.7,1.4,3,3.1,3       h71.3C1141.8,441.8,1143.2,440.4,1143.2,438.6z"></path>
					<path class="st6" d="M1178,438.6L1178,438.6c-0.1-1.7-1.4-3-3.1-3h-9.1c-1.7,0-3.1,1.4-3.1,3.2l0,0c0.1,1.7,1.4,3,3.1,3h9.1       C1176.6,441.8,1178,440.4,1178,438.6z"></path>
					<path class="st6" d="M1301,438.6L1301,438.6c-0.1-1.7-1.4-3-3.1-3h-71.3c-1.7,0-3.1,1.4-3.1,3.2l0,0c0.1,1.7,1.4,3,3.1,3h71.3       C1299.6,441.8,1301,440.4,1301,438.6z"></path>
					<path class="st6" d="M1323.1,438.6L1323.1,438.6c-0.1-1.7-1.4-3-3.1-3h-9.1c-1.7,0-3.1,1.4-3.1,3.2l0,0c0.1,1.7,1.4,3,3.1,3       h9.1C1321.7,441.8,1323.1,440.4,1323.1,438.6z"></path>
					<path class="st6" d="M1199.1,361.6L1199.1,361.6c-0.1-1.7-1.4-3-3.1-3h-127.2c-1.7,0-3.1,1.4-3.1,3.2v0c0.1,1.7,1.4,3,3.1,3       H1196C1197.8,364.8,1199.2,363.4,1199.1,361.6z"></path>
					<path class="st5" d="M1178.1,343.2L1178.1,343.2c-0.1-1.7-1.4-3-3.1-3h-106.2c-1.7,0-3.1,1.4-3.1,3.2v0c0.1,1.7,1.4,3,3.1,3       h106.2C1176.8,346.4,1178.2,344.9,1178.1,343.2z"></path>
					<path class="st6" d="M1356.9,361.6L1356.9,361.6c-0.1-1.7-1.4-3-3.1-3h-127.2c-1.7,0-3.1,1.4-3.1,3.2v0c0.1,1.7,1.4,3,3.1,3       h127.2C1355.6,364.8,1356.9,363.4,1356.9,361.6z"></path>
					<path class="st6" d="M1335.9,343.2L1335.9,343.2c-0.1-1.7-1.4-3-3.1-3h-106.2c-1.7,0-3.1,1.4-3.1,3.2l0,0c0.1,1.7,1.4,3,3.1,3       h106.2C1334.6,346.4,1336,344.9,1335.9,343.2z"></path>
					<path class="st6" d="M1199.1,419.2L1199.1,419.2c-0.1-1.7-1.4-3-3.1-3h-127.2c-1.7,0-3.1,1.4-3.1,3.2l0,0c0.1,1.7,1.4,3,3.1,3       H1196C1197.8,422.4,1199.2,421,1199.1,419.2z"></path>
					<path class="st5" d="M1178.1,400.8L1178.1,400.8c-0.1-1.7-1.4-3-3.1-3h-106.2c-1.7,0-3.1,1.4-3.1,3.2v0c0.1,1.7,1.4,3,3.1,3       h106.2C1176.8,403.9,1178.2,402.5,1178.1,400.8z"></path>
					<path class="st6" d="M1356.9,419.2L1356.9,419.2c-0.1-1.7-1.4-3-3.1-3h-127.2c-1.7,0-3.1,1.4-3.1,3.2v0c0.1,1.7,1.4,3,3.1,3       h127.2C1355.6,422.4,1356.9,421,1356.9,419.2z"></path>
					<path class="st6" d="M1335.9,400.8L1335.9,400.8c-0.1-1.7-1.4-3-3.1-3h-106.2c-1.7,0-3.1,1.4-3.1,3.2l0,0c0.1,1.7,1.4,3,3.1,3       h106.2C1334.6,403.9,1336,402.5,1335.9,400.8z"></path>
					<path class="st6" d="M1143.2,383L1143.2,383c-0.1-1.7-1.4-3-3.1-3h-71.3c-1.7,0-3.1,1.4-3.1,3.2v0c0.1,1.7,1.4,3,3.1,3h71.3       C1141.8,386.1,1143.2,384.7,1143.2,383z"></path>
					<path class="st6" d="M1179.4,383L1179.4,383c-0.1-1.7-1.4-3-3.1-3h-9.1c-1.7,0-3.1,1.4-3.1,3.2v0c0.1,1.7,1.4,3,3.1,3h9.1       C1178.1,386.1,1179.5,384.7,1179.4,383z"></path>
					<path class="st5" d="M1301,383L1301,383c-0.1-1.7-1.4-3-3.1-3h-71.3c-1.7,0-3.1,1.4-3.1,3.2v0c0.1,1.7,1.4,3,3.1,3h71.3       C1299.6,386.1,1301,384.7,1301,383z"></path>
					<path class="st6" d="M1324.5,383L1324.5,383c-0.1-1.7-1.4-3-3.1-3h-9.1c-1.7,0-3.1,1.4-3.1,3.2v0c0.1,1.7,1.4,3,3.1,3h9.1       C1323.2,386.1,1324.6,384.7,1324.5,383z"></path>
				</g>
			</g>
		</g>
		<g>
			<g>
				<g>
					<polygon class="st7" points="1716,437.1 1708.9,437.1 1708.9,432.3 1711.2,432.3 1711.2,430 1716,430      "></polygon>
				</g>
				<g>
					<g>
						<path class="st6" d="M1459.6,432.3v4.7h9.6v-4.7H1459.6z M1478.7,432.3v4.7h9.6v-4.7H1478.7z M1497.9,432.3v4.7h9.6v-4.7        H1497.9z M1517.1,432.3v4.7h9.6v-4.7H1517.1z M1536.2,432.3v4.7h9.6v-4.7H1536.2z M1555.4,432.3v4.7h9.6v-4.7H1555.4z         M1574.6,432.3v4.7h9.6v-4.7H1574.6z M1593.8,432.3v4.7h9.6v-4.7H1593.8z M1613,432.3v4.7h9.6v-4.7H1613z M1632.1,432.3v4.7        h9.6v-4.7H1632.1z M1651.3,432.3v4.7h9.6v-4.7H1651.3z M1670.5,432.3v4.7h9.6v-4.7H1670.5z M1689.7,432.3v4.7h9.6v-4.7H1689.7        z"></path>
					</g>
				</g>
				<g>
					<polygon class="st7" points="1450,437.1 1442.9,437.1 1442.9,430 1447.6,430 1447.6,432.3 1450,432.3      "></polygon>
				</g>
				<g>
					<g>
						<path class="st6" d="M1442.8,180.7v9.6h4.8v-9.6H1442.8z M1442.8,199.8v9.6h4.8v-9.6H1442.8z M1442.8,219v9.6h4.8V219H1442.8z         M1442.8,238.2v9.6h4.8v-9.6H1442.8z M1442.8,257.4v9.6h4.8v-9.6H1442.8z M1442.8,276.5v9.6h4.8v-9.6H1442.8z M1442.8,295.7        v9.6h4.8v-9.6H1442.8z M1442.8,314.9v9.6h4.8v-9.6H1442.8z M1442.8,334.1v9.6h4.8v-9.6H1442.8z M1442.8,353.2v9.6h4.8v-9.6        H1442.8z M1442.8,372.4v9.6h4.8v-9.6H1442.8z M1442.8,391.6v9.6h4.8v-9.6H1442.8z M1442.8,410.8v9.6h4.8v-9.6H1442.8z"></path>
					</g>
				</g>
				<g>
					<polygon class="st7" points="1447.6,171.1 1442.9,171.1 1442.9,164 1450,164 1450,168.7 1447.6,168.7      "></polygon>
				</g>
				<g>
					<g>
						<path class="st6" d="M1459.6,163.9v4.7h9.6v-4.7H1459.6z M1478.7,163.9v4.7h9.6v-4.7H1478.7z M1497.9,163.9v4.7h9.6v-4.7        H1497.9z M1517.1,163.9v4.7h9.6v-4.7H1517.1z M1536.2,163.9v4.7h9.6v-4.7H1536.2z M1555.4,163.9v4.7h9.6v-4.7H1555.4z         M1574.6,163.9v4.7h9.6v-4.7H1574.6z M1593.8,163.9v4.7h9.6v-4.7H1593.8z M1613,163.9v4.7h9.6v-4.7H1613z M1632.2,163.9v4.7        h9.6v-4.7H1632.2z M1651.3,163.9v4.7h9.6v-4.7H1651.3z M1670.5,163.9v4.7h9.6v-4.7H1670.5z M1689.7,163.9v4.7h9.6v-4.7H1689.7        z"></path>
					</g>
				</g>
				<g>
					<polygon class="st7" points="1716,171.1 1711.2,171.1 1711.2,168.7 1708.9,168.7 1708.9,164 1716,164      "></polygon>
				</g>
				<g>
					<g>
						<path class="st6" d="M1711.2,180.7v9.6h4.7v-9.6H1711.2z M1711.2,199.8v9.6h4.7v-9.6H1711.2z M1711.2,219v9.6h4.7V219H1711.2z         M1711.2,238.2v9.6h4.7v-9.6H1711.2z M1711.2,257.4v9.6h4.7v-9.6H1711.2z M1711.2,276.5v9.6h4.7v-9.6H1711.2z M1711.2,295.7        v9.6h4.7v-9.6H1711.2z M1711.2,314.9v9.6h4.7v-9.6H1711.2z M1711.2,334.1v9.6h4.7v-9.6H1711.2z M1711.2,353.2v9.6h4.7v-9.6        H1711.2z M1711.2,372.4v9.6h4.7v-9.6H1711.2z M1711.2,391.6v9.6h4.7v-9.6H1711.2z M1711.2,410.8v9.6h4.7v-9.6H1711.2z"></path>
					</g>
				</g>
			</g>
			<g>
				<path class="st6" d="M1659.2,380.3l-68.1-163.9l-0.1-0.2h-22.2l-0.1,0.2l-68.9,163.9h-12.7v4.5h41.4v-4.5h-20.3l20.8-51.6h53.5      l19.7,51.6h-19.2v4.5h88.4v-4.5H1659.2z M1531.6,323.4l25.4-62.5l23.5,62.5H1531.6z"></path>
			</g>
			<g>
				<g>
					
						<rect x="1435.9" y="425.3" transform="matrix(-1.836970e-16 1 -1 -1.836970e-16 1879.9133 -1010.5216)" class="st4" width="18.7" height="18.7"></rect>
				</g>
				<g>
					<g>
						<path class="st6" d="M1434.5,424v21.5h21.5V424H1434.5z M1453.2,442.7h-16v-16h16V442.7z"></path>
					</g>
				</g>
			</g>
			<g>
				<g>
					
						<rect x="1435.9" y="291.1" transform="matrix(-1.836970e-16 1 -1 -1.836970e-16 1745.7257 -1144.7092)" class="st4" width="18.7" height="18.7"></rect>
				</g>
				<g>
					<g>
						<path class="st6" d="M1434.5,289.8v21.5h21.5v-21.5H1434.5z M1453.2,308.5h-16v-16h16V308.5z"></path>
					</g>
				</g>
			</g>
			<g>
				<g>
					
						<rect x="1435.9" y="157" transform="matrix(-1.836970e-16 1 -1 -1.836970e-16 1611.5419 -1278.8931)" class="st4" width="18.7" height="18.7"></rect>
				</g>
				<g>
					<g>
						<path class="st6" d="M1434.5,155.6v21.5h21.5v-21.5H1434.5z M1453.2,174.3h-16v-16h16V174.3z"></path>
					</g>
				</g>
			</g>
			<g>
				<g>
					
						<rect x="1704.2" y="425.3" transform="matrix(-1.836970e-16 1 -1 -1.836970e-16 2148.2866 -1278.895)" class="st4" width="18.7" height="18.7"></rect>
				</g>
				<g>
					<g>
						<path class="st6" d="M1702.8,424v21.5h21.5V424H1702.8z M1721.6,442.7h-16v-16h16V442.7z"></path>
					</g>
				</g>
			</g>
			<g>
				<g>
					
						<rect x="1704.2" y="291.1" transform="matrix(-1.836970e-16 1 -1 -1.836970e-16 2014.0991 -1413.0826)" class="st4" width="18.7" height="18.7"></rect>
				</g>
				<g>
					<g>
						<path class="st6" d="M1702.8,289.8v21.5h21.5v-21.5H1702.8z M1721.6,308.5h-16v-16h16V308.5z"></path>
					</g>
				</g>
			</g>
			<g>
				<g>
					
						<rect x="1704.2" y="157" transform="matrix(-1.836970e-16 1 -1 -1.836970e-16 1879.9153 -1547.2665)" class="st4" width="18.7" height="18.7"></rect>
				</g>
				<g>
					<g>
						<path class="st6" d="M1702.8,155.6v21.5h21.5v-21.5H1702.8z M1721.6,174.3h-16v-16h16V174.3z"></path>
					</g>
				</g>
			</g>
			<g>
				<g>
					
						<rect x="1570" y="157" transform="matrix(-1.836970e-16 1 -1 -1.836970e-16 1745.7303 -1413.0815)" class="st4" width="18.7" height="18.7"></rect>
				</g>
				<g>
					<g>
						<path class="st6" d="M1568.7,155.6v21.5h21.5v-21.5H1568.7z M1587.4,174.3h-16v-16h16V174.3z"></path>
					</g>
				</g>
			</g>
			<g>
				<g>
					
						<rect x="1570" y="425.3" transform="matrix(-1.836970e-16 1 -1 -1.836970e-16 2014.1018 -1144.7101)" class="st4" width="18.7" height="18.7"></rect>
				</g>
				<g>
					<g>
						<path class="st6" d="M1568.7,424v21.5h21.5V424H1568.7z M1587.4,442.7h-16v-16h16V442.7z"></path>
					</g>
				</g>
			</g>
		</g>
		<g>
			<path class="st6" d="M1863,980.8h-178.6c-8.8,0-16-7.2-16-16V428.4c0-8.8,7.2-16,16-16H1863c8.8,0,16,7.2,16,16v536.3     C1879,973.6,1871.8,980.8,1863,980.8z"></path>
			<g>
				<g>
					<path class="st4" d="M1735.6,520.9c-0.9-2.6,0.6-46.9,0.6-46.9l-33,33.7l19.7-1.1L1735.6,520.9z"></path>
				</g>
			</g>
			<g>
				<g>
					<path class="st8" d="M1835.4,519.1c-0.9-2.6,0.6-47,0.6-47l-33.2,33.8l19.8-1.1L1835.4,519.1z"></path>
				</g>
			</g>
			<g>
				<g>
					<g>
						<g>
							<polygon class="st9" points="1839.5,607.1 1845.5,607 1845.4,596.2 1804.7,596.9 1804.8,607.2 1810.8,607.1 1810.8,602.8          1839.4,602.4        "></polygon>
						</g>
					</g>
				</g>
				<g>
					<g>
						<g>
							<polygon class="st9" points="1822.2,633.7 1828.2,633.7 1828.1,599.5 1822.1,599.6        "></polygon>
						</g>
					</g>
				</g>
				<g>
					<g>
						<g>
							<polygon class="st9" points="1817.3,636 1833.2,635.7 1833.1,629.7 1817.3,629.9        "></polygon>
						</g>
					</g>
				</g>
			</g>
			<g>
				<g>
					<g>
						<polygon class="st9" points="1737.3,641 1741.8,637 1703.3,592.3 1698.8,596.3       "></polygon>
					</g>
				</g>
			</g>
			<g>
				<g>
					<g>
						<g>
							<path class="st9" d="M1812.8,737.3c1.1,1.5,2.4,2.8,3.9,3.9c3.5,2.7,8,4.3,12.7,4.3c11.5-0.1,20.7-9.7,20.7-21.2         c-0.1-11.6-9.4-20.8-20.9-20.7c-11.4,0.2-20.7,9.7-20.7,21.2C1808.6,729.5,1810.2,733.8,1812.8,737.3z M1814.1,724.6         c0-8.5,6.8-15.5,15.2-15.6c8.4-0.1,15.3,6.7,15.4,15.2c0,8.5-6.8,15.5-15.2,15.6C1821,740,1814.1,733.2,1814.1,724.6z"></path>
						</g>
					</g>
				</g>
				<g>
					<g>
						<g>
							<path class="st9" d="M1794,764.1c0.7,0,1.4-0.3,2-0.9l22.3-23.8c1.1-1.1,1-2.9-0.1-3.9c-1.1-1.1-2.8-1-3.9,0.1l-22.3,23.7         c-1,1.1-1,2.9,0.1,3.9C1792.7,763.8,1793.4,764.1,1794,764.1z"></path>
						</g>
					</g>
				</g>
			</g>
			<g>
				<g>
					<path class="st9" d="M1720.6,703l-4.9,15.6c-0.7,2.1-2.9,3.5-5.5,3.5l-15.2,0.2l12.8,9.2c1.9,1.4,2.8,3.5,2.2,5.5l-5,15.8       l11.9-8.9c2.3-1.7,5.8-1.6,8.3,0.1l11.7,8.4l-5.2-15.9c-0.6-1.8,0-3.7,1.6-5l13.3-10l-14.5,0.2c-3,0-5.8-1.7-6.6-4.2       L1720.6,703z"></path>
				</g>
			</g>
			<g>
				<g>
					<g>
						<g>
							<path class="st4" d="M1795.1,949.7l-82.4-0.6l-0.3-82.8l82.4,0.5L1795.1,949.7z M1786.7,874.2l-66.1-0.3l0.3,67.7l66.2,0.6         L1786.7,874.2z"></path>
						</g>
					</g>
				</g>
			</g>
			<g>
				<g>
					<polygon class="st4" points="1761,902.5 1835.4,903 1835.1,827.6 1760.7,827.3      "></polygon>
				</g>
			</g>
			<g>
				<g>
					<polygon class="st4" points="1775.4,798.3 1777.6,798.4 1777.6,437.8 1775.4,437.3      "></polygon>
				</g>
			</g>
			<g>
				<g>
					<polygon class="st4" points="1700,680.4 1847.4,679.8 1847.2,678 1699.7,678.4      "></polygon>
				</g>
			</g>
			<g>
				<g>
					<polygon class="st4" points="1699.5,810.1 1847.7,807.6 1847.6,805.8 1699.4,808.1      "></polygon>
				</g>
			</g>
			<g>
				<g>
					<polygon class="st4" points="1700.1,555.2 1847.5,556.1 1847.1,554.3 1699.6,553.2      "></polygon>
				</g>
			</g>
		</g>
		<g id="XMLID_1_">
			<path id="XMLID_26_" class="st10" d="M772.3,809.3c0,0,155.9,194.9,201.3,418.6l-114.5,142.3L772.3,809.3z"></path>
			<path class="st11" d="M1244.8,1356.6c0,0-6.7,5.4-25.6-1.5c-6.1-2.2-14.2-17.1-23-25.4c-7.2-6.7-21.7-6.2-37.5-4.3     c-8.9,1-16.7-15.1-21.9-24.2c-56.5,19.4-213.9,73.9-275.3,64.5c-15.6-2.4,34.5-133.1,62-140.7c20.8-5.7,141.2,5,217.1,21.2     c27,6.4,53.5,15.6,79.4,27.6C1229.7,1282.9,1244.8,1356.6,1244.8,1356.6z"></path>
			<path id="XMLID_19_" class="st5" d="M454.3,709.4L261.4,822.4c0,0-190.7,361.3-166,482.5l147.9,65.3h615.8     c0,0-14.1-489.3-86.8-560.9L606,721.5L454.3,709.4z"></path>
			<path id="XMLID_18_" class="st12" d="M606,663.4v58.1c0,0-39.7,66.6-151.8-12.1l39.4-222.1l106.1,166.2L606,663.4z"></path>
			<path id="XMLID_16_" class="st11" d="M606,663.4v39.4c-25.4-1.4-101-15.9-101.2-140.2l94.8,90.9L606,663.4z"></path>
			<path id="XMLID_54_" class="st12" d="M687.5,485.3c0,0-17.4,164.8-81.4,178.2c-14.8,3.1-32-1.9-52.2-18.8     c-29.4-24.7-47.4-60.4-51.8-98.6c-6.4-55.8,3.6-111.3,3.6-111.3l137.5-4.2l49,24.8L687.5,485.3z"></path>
			<path id="XMLID_14_" class="st10" d="M360.8,990.2c0,0-9.4,120.5-77.3,220.4l263.1,75.2C546.6,1285.8,508,1112.6,360.8,990.2z"></path>
			<path id="XMLID_24_" class="st12" d="M953.8,1217.4c-2-15.4-84.3-16.6-98.2-15.4c-13.9,1.2-124.3,74.8-137.4,78     c-9.8,2.4-39.6-4.1-54-7.4c-6-1.4-12-2.6-18.1-3.6l-383.1-63.1c-14.6-5.1-30.9-7.9-48-7.9c-64,0-115.8,39.3-115.8,87.8v1.1     c0.8,48,52.4,86.7,115.8,86.7c2.3,0,4.6-0.1,6.8-0.2l434.1-10.4l0.4,0l56.2-1.5c28,21.7,136.6-16.6,136.6-16.6l66.9,6.7     c23.4-5.5,9.5-24.6,9.5-24.6c31.3,0,13.5-28.5,13.5-28.5s5.1-1,7.7-10.3c11,9.7,21.6,8,21.6,8S955.8,1232.8,953.8,1217.4z      M882.8,1235.3l43.7,11.1c0.9,4.3,1.9,8.1,3,11.7C910.8,1246.1,884.4,1235.9,882.8,1235.3z"></path>
			<path class="st13" d="M939.4,1299.1c-3.9-6.8-15.7-14.8-22.3-18.7c-10.7-6.3-22.4-12-34.2-15.7"></path>
			<path class="st13" d="M925.3,1326.6c-3.9-6.8-15.7-14.8-22.3-18.7c-10.7-6.3-22.4-12-34.2-15.7"></path>
			<path id="XMLID_27_" class="st11" d="M849.4,1344.9c0,0-108.6,38.4-136.6,16.6l-56.2,1.5l-0.4,0L222,1373.5     c-2.3,0.1-4.5,0.2-6.8,0.2c-63.5,0-115.1-38.7-115.8-86.7c32.8,29.2,101.9,68.2,229.5,53.5     C525.7,1317.6,823.2,1319.2,849.4,1344.9z"></path>
			<path class="st14" d="M708.7,459.2c-6.3-5.3-15.5-9.4-11.5-19.3c1.6-3.9,4.5-7,7.2-10.2c3.1-3.7,5.9-7.7,7.7-12.2     c4.8-12.2-2.5-22.2-13.4-27.4c-5.5-2.6-11.5-3.8-17.5-4.8c-3.8-0.6-7.7-1.1-10.9-3.1c-4-2.6-6.3-7.2-7.7-11.8     c-3.2-10.6-5.5-23.1-18.2-25.9c-8.6-1.9-17.2,2.1-25.9,3.5c-11,1.7-22.5-1.1-31.5-7.6c-4.7-3.4-8.6-7.7-13.5-10.8     c-22.5-14.1-43.1,19.3-60,28.7c-11.4,6.3-27.6,0.2-36.7,11.1c-3.1,3.8-4.4,8.7-6.7,13c-8.8,16-30,22.8-29,43.9     c0.5,11.6,7,22,6.8,33.8c-0.4,17.3-17.3,34.3-1.4,49.6c2,1.9,4.2,3.4,6,5.5c7.8,9.1,8.7,24.8,9.7,36.1     c0.6,6.6,0.8,51.2,12.7,48.2c0.3-5.2,2.2-8.2,4.3-12.9c3.9-8.7,7.5-16,8.9-25.7c0.7-5,0.7-9.9,0.6-14.9     c1.8,0.7,13.5-11.5,16.7-12.8c3.8-1.6,10.1,21.8,7.7,32.1c-7.5,32.5,3.3,66.1,31,85.6c11.9,8.4,25.8,13.8,40,17.1     c19.6,4.5,44.6,5.4,60.7-8.8c21.5-18.9,20-53.7,22.3-79.6c-16.5-1.7-31.8-11.5-48.4-10.4c-15.4,1-29.4,11.4-44.8,10.6     c-16.4-0.8-29.5-13.9-38.2-27.8c-2.6-4.2-5-8.8-4.9-13.7c0.1-5.9,3.9-11.1,4.7-16.9c1.3-10.3-6.6-21.3-1.8-30.5     c4.5-8.7,17.8-9.7,22.2-18.4c2.4-4.6,1.7-10.5,4.9-14.6c3.4-4.4,9.9-5,15.3-3.6c5.4,1.4,10.3,4.3,15.7,5.7     c10.4,2.6,22.1-1.6,28.6-10.2c4.4-5.8,7.7-14.2,14.9-14.9c6.2-0.7,11.1,4.9,14,10.4c2.9,5.5,5.2,11.8,10.6,14.9     c6.2,3.7,14.9,1.9,20.5,6.5c3.3,2.7,4.7,7.2,4.7,11.5c0.1,4.3,0.1,9.8-0.1,14.1c-0.7,13.7-2.4,21.7-4.3,35.7     c-0.2,1.5,7.8-5.4,8.2-5.8c3.3-3.4,6.2-7.2,9.1-10.9c5.8-7.4,10.5-15.6,13.9-24.3c2.8-7.1,4.6-15.1,1.6-22.1     C712.4,462.7,710.7,460.9,708.7,459.2z"></path>
			<g>
				<g>
					<g>
						<g>
							<path class="st15" d="M606.4,560.8l-26.2-1.5c-11.4-0.7-20-10.4-19.4-21.8l3-24.5c0.7-11.4,10.4-20,21.8-19.4l26.2,1.5         c11.4,0.7,20,10.4,19.4,21.8l-3,24.5C627.5,552.8,617.8,561.5,606.4,560.8z"></path>
						</g>
					</g>
					<g>
						<path class="st15" d="M671.5,563.7l-13.6-0.8c-8.7-0.5-15.4-8-14.9-16.7l3.4-31.7c0.5-8.7,8-15.4,16.7-14.9l13.6,0.8        c8.7,0.5,15.4,8,14.9,16.7l-3.4,31.7C687.7,557.5,680.2,564.2,671.5,563.7z"></path>
					</g>
					<line class="st15" x1="631.8" y1="519.2" x2="645.5" y2="520"></line>
				</g>
				<line class="st15" x1="479.1" y1="503.8" x2="563.4" y2="509.6"></line>
			</g>
			<path id="XMLID_9_" class="st12" d="M506.9,533.1c0,0-39.4-72.2-29.8-3.5S494.3,591.1,506.9,533.1z"></path>
			<path id="XMLID_10_" class="st11" d="M495,527.3c0,0-20.2-33.8-10.3,12.1c9.8,45.9,14.4-3,14.4-3l-10.6,4.8L495,527.3z"></path>
			<g id="XMLID_56_">
				<path id="XMLID_73_" class="st4" d="M545.2,779.6c-22.3,0-41.4-5-56.6-11.3c-38.1-15.7-59.8-41.9-60.7-43l3.6-3      c0.2,0.3,21.9,26.4,59,41.7c34.1,14,88.7,21.5,154.9-23l2.6,3.9C609.4,770.9,574.5,779.6,545.2,779.6z"></path>
			</g>
			<path class="st4" d="M364.4,952.3c-1.6-42.1-13.6-76.1-35.7-101.1c-16.6-18.8-36.6-29.8-54.5-36.2l-5.6,3.2     c18.9,6,41.2,17.4,59.1,39.1c20.3,24.5,31.1,57.7,32,98.4c1.2,50.6-12.8,113.2-41.5,186.1l4.4,1.7     C352.3,1068.5,366.3,1004.1,364.4,952.3z"></path>
		</g>
		<g>
			<path class="st16" d="M1629.3,761.7h-273.6c-8.8,0-16-7.2-16-16v-97.4c0-8.8,7.2-16,16-16h273.6c8.8,0,16,7.2,16,16v97.4     C1645.3,754.5,1638.2,761.7,1629.3,761.7z"></path>
			<g>
				<rect x="1363.2" y="675.9" class="st17" width="31" height="31"></rect>
				<rect x="1376.4" y="687.1" class="st18" width="31" height="31"></rect>
				<rect x="1434.7" y="675.9" class="st19" width="31" height="31"></rect>
				<rect x="1447.9" y="687.1" class="st20" width="31" height="31"></rect>
				<rect x="1506.1" y="675.9" class="st21" width="31" height="31"></rect>
				<rect x="1519.4" y="687.1" class="st22" width="31" height="31"></rect>
				<rect x="1577.6" y="675.9" class="st23" width="31" height="31"></rect>
				<rect x="1590.9" y="687.1" class="st24" width="31" height="31"></rect>
			</g>
		</g>
		<g>
			<path class="st25" d="M1711,1014.9c0-24.5-19.8-44.3-44.3-44.3c-12.8,0-24.3,5.4-32.4,14.1c8.4,8.1,13.7,19.4,13.7,32     c0,3.8-0.5,7.4-1.4,10.9c15.2,3.6,27.4,15.1,32,30C1697.3,1052.3,1711,1035.2,1711,1014.9z"></path>
			<path class="st26" d="M1624.3,1028c-1.3-4.1-2-8.5-2-13.1c0-11.7,4.5-22.3,11.9-30.2c-8-7.6-18.7-12.3-30.6-12.3     c-24.5,0-44.3,19.8-44.3,44.3c0,20.9,14.5,38.4,34,43.1C1597.3,1044.4,1609.1,1032.2,1624.3,1028z"></path>
			<path class="st25" d="M1624.3,1028c3.8-1.1,7.9-1.7,12-1.7c3.6,0,7,0.4,10.3,1.2c0.9-3.5,1.4-7.1,1.4-10.9c0-12.6-5.3-24-13.7-32     c-7.4,7.9-11.9,18.5-11.9,30.2C1622.4,1019.4,1623,1023.8,1624.3,1028z"></path>
			<path class="st27" d="M1624.3,1028c3.8-1.1,7.9-1.7,12-1.7c3.6,0,7,0.4,10.3,1.2c0.9-3.5,1.4-7.1,1.4-10.9c0-12.6-5.3-24-13.7-32     c-7.4,7.9-11.9,18.5-11.9,30.2C1622.4,1019.4,1623,1023.8,1624.3,1028z"></path>
			<path class="st28" d="M1636.1,1046.9c-8.1,8.6-19.6,14.1-32.4,14.1c-3.6,0-7-0.4-10.3-1.2c-0.9,3.5-1.4,7.1-1.4,10.9     c0,24.5,19.8,44.3,44.3,44.3c24.5,0,44.3-19.8,44.3-44.3c0-4.6-0.7-9-2-13.1c-3.8,1.1-7.9,1.7-12,1.7     C1654.8,1059.2,1644,1054.5,1636.1,1046.9z"></path>
			<path class="st25" d="M1646.6,1027.5c-1.9,7.4-5.6,14-10.6,19.4c8,7.6,18.7,12.3,30.6,12.3c4.2,0,8.2-0.6,12-1.7     C1674.1,1042.6,1661.9,1031.1,1646.6,1027.5z"></path>
			<path class="st29" d="M1646.6,1027.5c-1.9,7.4-5.6,14-10.6,19.4c8,7.6,18.7,12.3,30.6,12.3c4.2,0,8.2-0.6,12-1.7     C1674.1,1042.6,1661.9,1031.1,1646.6,1027.5z"></path>
			<path class="st26" d="M1636.1,1046.9c-5.4-5.1-9.5-11.6-11.7-18.9c-15.2,4.3-27.1,16.4-30.9,31.8c3.3,0.8,6.8,1.2,10.3,1.2     C1616.5,1060.9,1628,1055.5,1636.1,1046.9z"></path>
			<path class="st30" d="M1636.1,1046.9c-5.4-5.1-9.5-11.6-11.7-18.9c-15.2,4.3-27.1,16.4-30.9,31.8c3.3,0.8,6.8,1.2,10.3,1.2     C1616.5,1060.9,1628,1055.5,1636.1,1046.9z"></path>
			<path class="st25" d="M1624.3,1028c2.3,7.3,6.4,13.8,11.7,18.9c5-5.4,8.7-12,10.6-19.4c-3.3-0.8-6.8-1.2-10.3-1.2     C1632.2,1026.3,1628.1,1026.9,1624.3,1028z"></path>
			<path class="st26" d="M1624.3,1028c2.3,7.3,6.4,13.8,11.7,18.9c5-5.4,8.7-12,10.6-19.4c-3.3-0.8-6.8-1.2-10.3-1.2     C1632.2,1026.3,1628.1,1026.9,1624.3,1028z"></path>
			<path class="st31" d="M1624.3,1028c2.3,7.3,6.4,13.8,11.7,18.9c5-5.4,8.7-12,10.6-19.4c-3.3-0.8-6.8-1.2-10.3-1.2     C1632.2,1026.3,1628.1,1026.9,1624.3,1028z"></path>
		</g>
		<g>
			<polygon class="st32" points="1044.3,1346 697.9,1361.8 697.9,1377.5 1044.3,1374.5    "></polygon>
			<polygon class="st33" points="1044.3,1346 1332.6,1344.9 1332.6,1372.7 1044.3,1373.9    "></polygon>
			<path class="st33" d="M1438.5,1376h-71.4l-11.1-15.7c-10.9-15.4-31-24.9-52.8-24.9h-104.9c-21.8,0-41.9,9.5-52.8,24.9l-11.1,15.7     h-68.7l27.5-34.5c12.3-15.4,34.9-24.9,59.5-24.9h198.9c24.6,0,47.3,9.5,59.5,24.9L1438.5,1376z"></path>
			<path class="st34" d="M1439.9,1376h-29l-11.1-15.7c-10.9-15.4-31-24.9-52.8-24.9h-147.3c-21.8,0-41.9,9.5-52.8,24.9l-11.1,15.7     H1067l27.5-34.5c12.3-15.4,34.9-24.9,59.5-24.9h198.9c24.6,0,47.2,9.5,59.5,24.9L1439.9,1376z"></path>
			<path class="st35" d="M1480,1219.3H807.4c-17.9,0-30.7-17.7-25.8-35.5L881.9,824c5.1-19.4,22.5-32.9,42.5-33.2H1597     c17.9,0,30.8,17.7,25.8,35.5l-100.3,359.8C1517.4,1205.5,1500,1219.1,1480,1219.3z"></path>
			<path class="st36" d="M1093.1,1121.9l-22.1,96l63.7,0l-22.2-94.6C1111.9,1120.9,1093.5,1119.5,1093.1,1121.9z"></path>
			<path class="st33" d="M1327.6,1316.4h-166.7l-41.6-166.4c-4.5-18.2-10.4-25.3-24.5-29.3v-9.5h141.5c23.5,0,44,16,49.6,38.8     L1327.6,1316.4z"></path>
			<path class="st34" d="M1344.1,1316.5h-166.7l-41.5-166.5c-5.7-22.8-13.4-38.8-36.9-38.8h154c23.5,0,43.9,16,49.6,38.8     L1344.1,1316.5z"></path>
			<path class="st37" d="M1259.8,963.1c1.7-13.1-6.9-23.2-20.7-23.2c-7.8,0-15.7,3.2-22.1,8.3c2.5-0.9,5.2-1.5,8.1-1.5     c11.4,0,16.6,9.3,13.6,19.9l-0.1,0.3c-3,10.6-12.5,19.6-24.2,19.6c-3.6,0-6.6-1-8.9-2.6c-2.3-1.7-3.9-4-4.8-6.8     c-0.7-3.7-0.6-7.8,0.6-12.2c0.1-0.2,0.1-0.5,0.2-0.7c0.4-1.3,0.9-2.6,1.4-3.8c6-14,21.1-24.6,35.8-24.6c0.3,0,0.6,0,0.9,0     c9.6,0.3,16.7,5.2,19.8,12.5c-3.3-11.5-13.8-19.2-29.3-19.2c-12.8,0-25.2,5.3-34.6,13.7c-7.3,6.5-12.7,14.8-15.1,23.8l-0.1,0.3     c-5.5,20.7,6.6,37.3,28.9,37.3c8.4,0,16.6-2.3,23.9-6.3c10-5.5,18.4-14.1,23.2-24.1c0.2-0.4,0.3-0.7,0.5-1.1c0.9-2,1.6-4,2.2-6.1     l0.1-0.3C1259.3,965.3,1259.6,964.2,1259.8,963.1z"></path>
		</g>
		<g>
			<path class="st3" d="M-254.5,452.8c52.1,45.2,125.5,57.1,192.1,46.8c66.7-10.5,132.1-41,176.9-92.3     c22.5-25.5,40.2-54.7,55.8-84.8c48.3-92.2,80.2-206.3,177.2-260c26.3-14.6,55.4-23.4,85-28.4c67.5-11.3,136.2-4.8,204.2-5.1     c170-0.2,340.6-27.5,499.7-88.3C999.9-4.4,853.7,24.2,707,31.3c-14.3,0.5-30.5,1.3-44.7,1.4c-84.5,2.7-171-9.8-254,10.3     C218,88.4,222.4,311.3,98.5,427.4C8.2,510.1-157.3,537.4-254.5,452.8L-254.5,452.8z"></path>
		</g>
		<g>
			<path class="st3" d="M-275.9,535.5c79.4,7.2,151.5-32.3,206.8-86.3c89-85,129.8-204.3,198.1-304.4C165.6,88.9,215,42.5,268.3,2.9     C299-20.6,330.9-42.7,361.7-66c29.7-22.4,58.7-46,84.8-72.5c5.3-5.4,11.9-12.5,17-18.2c0,0,2.7-3.1,2.7-3.1l5.4-6.3     C399.8-73.6,292.8-18.9,208.4,60.4C113.2,147.1,70.1,272.1-1.8,376c-25.6,36.2-55.3,69.8-89.9,97.8     C-143.3,515.8-208.5,543.2-275.9,535.5L-275.9,535.5z"></path>
		</g>
		<g>
			<path class="st3" d="M1720.7,1494.3c20.7-104.7,90.8-192.4,172.1-258.3c82.4-65.6,175.6-119.5,276.3-151.2     c54.7-16.5,112.6-24.8,169.5-17.8c8.7,0.9,17.4,2.6,26,4.3c4.3,0.9,8.6,2,12.8,2.9c-68.9-14.2-140.2-5.3-206.6,16     c-83.1,26.9-160.4,69.7-232.1,119.2C1839.6,1278.8,1749.3,1373.6,1720.7,1494.3L1720.7,1494.3z"></path>
		</g>
	</g>
</g>
</svg>
